<svg width="30" height="30" viewBox="0 0 30 30" fill="none" xmlns="http://www.w3.org/2000/svg">
<path d="M16 12.5C16 11.8078 15.7947 11.1311 15.4101 10.5555C15.0256 9.97993 14.4789 9.53133 13.8394 9.26642C13.1999 9.00151 12.4961 8.9322 11.8172 9.06725C11.1382 9.2023 10.5146 9.53564 10.0251 10.0251C9.53564 10.5146 9.2023 11.1382 9.06725 11.8172C8.9322 12.4961 9.00151 13.1999 9.26642 13.8394C9.53133 14.4789 9.97993 15.0256 10.5555 15.4101C11.1311 15.7947 11.8078 16 12.5 16C13.4283 16 14.3185 15.6313 14.9749 14.9749C15.6313 14.3185 16 13.4283 16 12.5ZM12.5 14C12.2033 14 11.9133 13.912 11.6666 13.7472C11.42 13.5824 11.2277 13.3481 11.1142 13.074C11.0006 12.7999 10.9709 12.4983 11.0288 12.2074C11.0867 11.9164 11.2296 11.6491 11.4393 11.4393C11.6491 11.2296 11.9164 11.0867 12.2074 11.0288C12.4983 10.9709 12.7999 11.0006 13.074 11.1142C13.3481 11.2277 13.5824 11.42 13.7472 11.6666C13.912 11.9133 14 12.2033 14 12.5C14 12.8978 13.842 13.2794 13.5607 13.5607C13.2794 13.842 12.8978 14 12.5 14ZM21 13C21.3956 13 21.7822 13.1173 22.1111 13.3371C22.44 13.5568 22.6964 13.8692 22.8478 14.2346C22.9991 14.6001 23.0387 15.0022 22.9616 15.3902C22.8844 15.7781 22.6939 16.1345 22.4142 16.4142C22.1345 16.6939 21.7781 16.8844 21.3902 16.9616C21.0022 17.0387 20.6001 16.9991 20.2346 16.8478C19.8692 16.6964 19.5568 16.44 19.3371 16.1111C19.1173 15.7822 19 15.3956 19 15C19 14.4696 19.2107 13.9609 19.5858 13.5858C19.9609 13.2107 20.4696 13 21 13ZM17 21C17 21.3956 16.8827 21.7822 16.6629 22.1111C16.4432 22.44 16.1308 22.6964 15.7654 22.8478C15.3999 22.9991 14.9978 23.0387 14.6098 22.9616C14.2219 22.8844 13.8655 22.6939 13.5858 22.4142C13.3061 22.1345 13.1156 21.7781 13.0384 21.3902C12.9613 21.0022 13.0009 20.6001 13.1522 20.2346C13.3036 19.8692 13.56 19.5568 13.8889 19.3371C14.2178 19.1173 14.6044 19 15 19C15.5304 19 16.0391 19.2107 16.4142 19.5858C16.7893 19.9609 17 20.4696 17 21ZM29 14H26.9575C26.7516 11.515 25.773 9.15678 24.1588 7.25625L25.7075 5.7075C25.8951 5.51986 26.0006 5.26536 26.0006 5C26.0006 4.73464 25.8951 4.48014 25.7075 4.2925C25.5199 4.10486 25.2654 3.99944 25 3.99944C24.7346 3.99944 24.4801 4.10486 24.2925 4.2925L22.75 5.84125C20.8478 4.22584 18.4872 3.24708 16 3.0425V1C16 0.734784 15.8946 0.48043 15.7071 0.292893C15.5196 0.105357 15.2652 0 15 0C14.7348 0 14.4804 0.105357 14.2929 0.292893C14.1054 0.48043 14 0.734784 14 1V3.0425C11.515 3.24835 9.15678 4.22704 7.25625 5.84125L5.7075 4.2925C5.51986 4.10486 5.26536 3.99944 5 3.99944C4.73464 3.99944 4.48014 4.10486 4.2925 4.2925C4.10486 4.48014 3.99944 4.73464 3.99944 5C3.99944 5.26536 4.10486 5.51986 4.2925 5.7075L5.84125 7.25625C4.22584 9.15848 3.24708 11.5191 3.0425 14.0063H1C0.734784 14.0063 0.48043 14.1116 0.292893 14.2991C0.105357 14.4867 0 14.741 0 15.0063C0 15.2715 0.105357 15.5258 0.292893 15.7134C0.48043 15.9009 0.734784 16.0063 1 16.0063H3.0425C3.24835 18.4913 4.22704 20.8495 5.84125 22.75L4.2925 24.2925C4.10486 24.4801 3.99944 24.7346 3.99944 25C3.99944 25.2654 4.10486 25.5199 4.2925 25.7075C4.48014 25.8951 4.73464 26.0006 5 26.0006C5.26536 26.0006 5.51986 25.8951 5.7075 25.7075L7.25625 24.1588C9.15848 25.7742 11.5191 26.7529 14.0063 26.9575V29C14.0063 29.2652 14.1116 29.5196 14.2991 29.7071C14.4867 29.8946 14.741 30 15.0063 30C15.2715 30 15.5258 29.8946 15.7134 29.7071C15.9009 29.5196 16.0063 29.2652 16.0063 29V26.9575C18.4913 26.7516 20.8495 25.773 22.75 24.1588L24.2987 25.7075C24.4864 25.8951 24.7409 26.0006 25.0063 26.0006C25.2716 26.0006 25.5261 25.8951 25.7138 25.7075C25.9014 25.5199 26.0068 25.2654 26.0068 25C26.0068 24.7346 25.9014 24.4801 25.7138 24.2925L24.1588 22.75C25.7742 20.8478 26.7529 18.4872 26.9575 16H29C29.2652 16 29.5196 15.8946 29.7071 15.7071C29.8946 15.5196 30 15.2652 30 15C30 14.7348 29.8946 14.4804 29.7071 14.2929C29.5196 14.1054 29.2652 14 29 14ZM15 25C13.0222 25 11.0888 24.4135 9.4443 23.3147C7.79981 22.2159 6.51808 20.6541 5.7612 18.8268C5.00433 16.9996 4.8063 14.9889 5.19215 13.0491C5.578 11.1093 6.53041 9.32746 7.92893 7.92893C9.32746 6.53041 11.1093 5.578 13.0491 5.19215C14.9889 4.8063 16.9996 5.00433 18.8268 5.7612C20.6541 6.51808 22.2159 7.79981 23.3147 9.4443C24.4135 11.0888 25 13.0222 25 15C24.997 17.6513 23.9425 20.1931 22.0678 22.0678C20.1931 23.9425 17.6513 24.997 15 25Z" fill="#212529"/>
</svg>
