<svg width="56" height="56" viewBox="0 0 56 56" fill="none" xmlns="http://www.w3.org/2000/svg">
<rect x="4" y="4" width="48" height="48" rx="24" fill="#4263EB"/>
<rect x="4" y="4" width="48" height="48" rx="24" stroke="#004EEB" stroke-width="8"/>
<path d="M28 43C29.9698 43 31.9204 42.612 33.7403 41.8582C35.5601 41.1044 37.2137 39.9995 38.6066 38.6066C39.9995 37.2137 41.1044 35.5601 41.8582 33.7403C42.612 31.9204 43 29.9698 43 28C43 26.0302 42.612 24.0796 41.8582 22.2597C41.1044 20.4399 39.9995 18.7863 38.6066 17.3934C37.2137 16.0005 35.5601 14.8956 33.7403 14.1418C31.9204 13.388 29.9698 13 28 13C24.0218 13 20.2064 14.5804 17.3934 17.3934C14.5804 20.2064 13 24.0218 13 28C13 31.9782 14.5804 35.7936 17.3934 38.6066C20.2064 41.4196 24.0218 43 28 43Z" stroke="white" stroke-width="3.33333" stroke-linecap="round" stroke-linejoin="round"/>
<path d="M23 27.9998L26.3333 31.3332L33 24.6665" stroke="white" stroke-width="3.33333" stroke-linecap="round" stroke-linejoin="round"/>
</svg>
